Coordinates
version=1
nRows=10
nColumns=63
inDegrees=yes

Units are S.I. units (second, meters, Newtons, ...)
If the header above contains a line with 'inDegrees', this indicates whether rotational values are in degrees (yes) or radians (no).

endheader
time	pelvis_tilt	pelvis_list	pelvis_rotation	pelvis_tx	pelvis_ty	pelvis_tz	hip_flexion_r	hip_adduction_r	hip_rotation_r	knee_angle_r	knee_angle_r_beta	ankle_angle_r	subtalar_angle_r	mtp_angle_r	hip_flexion_l	hip_adduction_l	hip_rotation_l	knee_angle_l	knee_angle_l_beta	ankle_angle_l	subtalar_angle_l	mtp_angle_l	L5_S1_Flex_Ext	L5_S1_Lat_Bending	L5_S1_axial_rotation	L4_L5_Flex_Ext	L4_L5_Lat_Bending	L4_L5_axial_rotation	L3_L4_Flex_Ext	L3_L4_Lat_Bending	L3_L4_axial_rotation	L2_L3_Flex_Ext	L2_L3_Lat_Bending	L2_L3_axial_rotation	L1_L2_Flex_Ext	L1_L2_Lat_Bending	L1_L2_axial_rotation	L1_T12_Flex_Ext	L1_T12_Lat_Bending	L1_T12_axial_rotation	Abs_r3	Abs_r2	Abs_r1	Abs_t1	Abs_t2	neck_flexion	neck_bending	neck_rotation	arm_flex_r	arm_add_r	arm_rot_r	elbow_flex_r	pro_sup_r	wrist_flex_r	wrist_dev_r	arm_flex_l	arm_add_l	arm_rot_l	elbow_flex_l	pro_sup_l	wrist_flex_l	wrist_dev_l
      1.05000000	      0.57620880	     -4.65893671	     87.34651836	      0.34200330	      1.05522732	      0.35808981	     -2.36675485	     -4.95518589	     17.99608244	      2.47373937	      0.04317490	     25.98588245	     -9.65949469	      0.00000000	     -3.77484504	      3.67820368	      4.52155378	      1.24689497	      0.02176242	     21.79470922	    -14.14572367	      0.00000000	     -0.00604077	     -0.80064297	      0.34176446	     -0.01121831	     -1.06485515	      0.36312473	     -0.00992437	     -1.94668331	      0.36312473	     -0.00690399	     -1.94668331	      0.29904390	     -0.00560945	     -1.63267114	      0.27768362	     -0.00345169	     -1.24019596	      0.25632334	     -0.04314858	     -9.05703338	      1.90079137	      0.00000000	      0.00000000	     28.08558130	      9.64692616	    -20.49980169	     19.94684824	    -12.60484968	      1.92010855	    119.20751673	     80.90548380	     -0.44702998	     13.98456860	      2.27196130	    -18.99597918	    136.39832416	      5.51229993	      6.84563497	     -7.89736106	     -5.60143992
      1.06666667	      0.40804832	     -4.64964412	     88.23726562	      0.34146590	      1.05502073	      0.35775777	     -2.69415572	     -5.06304106	     17.67285493	      2.53136243	      0.04418061	     25.36526069	    -10.48803237	      0.00000000	     -3.72916984	      3.76212524	      4.35528179	      1.35793635	      0.02370046	     22.22967274	    -13.07421250	      0.00000000	     -0.02498542	     -0.84205211	      0.20906589	     -0.04640042	     -1.11992930	      0.22213251	     -0.04104855	     -2.04736549	      0.22213251	     -0.02855584	     -2.04736549	      0.18293266	     -0.02320146	     -1.71711265	      0.16986604	     -0.01427667	     -1.30433871	      0.15679942	     -0.17846835	     -9.52546183	      1.16276179	      0.00000000	      0.00000000	     28.10371521	      9.59107465	    -21.60900366	     21.35563956	    -13.13557863	      2.03737473	    122.73465658	     77.91997561	      0.69238969	     15.15705147	      1.75678052	    -19.28242202	    141.98444142	      4.40606771	      9.75027504	     -8.20998005	     -4.19896847
      1.08333333	      0.12471000	     -4.63898035	     89.08274619	      0.34109498	      1.05495654	      0.35749675	     -2.99390106	     -5.27401196	     17.31989576	      2.67627960	      0.04670989	     24.69085821	    -11.38979177	      0.00000000	     -3.67568726	      3.95989861	      3.56268145	      1.48932525	      0.02599363	     22.69911241	    -11.25787782	      0.00000000	     -0.04632860	     -0.89552319	      0.08975436	     -0.08603684	     -1.19104585	      0.09536401	     -0.07611325	     -2.17737509	      0.09536401	     -0.05294895	     -2.17737509	      0.07853507	     -0.04302073	     -1.82615089	      0.07292542	     -0.02647216	     -1.38716543	      0.06731577	     -0.33092053	    -10.13033746	      0.49918684	      0.00000000	      0.00000000	     28.12039890	      9.34391472	    -22.84610642	     22.38811537	    -13.25923203	      1.62674841	    126.40473380	     79.84023782	      3.39640585	     14.35727418	      1.27861392	    -19.45952800	    151.02493346	      3.05465507	      9.81186315	     -8.38695257	     -2.68237520
      1.10000000	     -0.04159505	     -4.59737292	     89.81699898	      0.34085558	      1.05503071	      0.35732200	     -3.30105943	     -5.36868201	     16.48974331	      2.77509928	      0.04843462	     24.14863745	    -11.58191275	      0.00000000	     -3.67471875	      4.05688014	      3.37058847	      1.57703237	      0.02752441	     22.83586351	    -10.49592338	      0.00000000	     -0.06950478	     -0.93305571	     -0.01974264	     -0.12907732	     -1.24096409	     -0.02097655	     -0.11418940	     -2.26863165	     -0.02097655	     -0.07943701	     -2.26863165	     -0.01727481	     -0.06454213	     -1.90268720	     -0.01604089	     -0.03971503	     -1.44530329	     -0.01480698	     -0.49646566	    -10.55491277	     -0.10980262	      0.00000000	      0.00000000	     28.12836221	      9.26023166	    -23.78316473	     23.39417287	    -13.34125364	      0.83788124	    130.21626214	     84.11003919	      7.93171303	     12.69894929	      0.76274749	    -19.68302629	    154.31262644	      2.25458320	     12.49395323	     -8.86747724	     -2.06536775
      1.11666667	      0.02887877	     -4.55099487	     90.57926121	      0.34036027	      1.05515764	      0.35708459	     -3.59495913	     -5.22465888	     15.67884633	      2.81031214	      0.04904920	     23.58027286	    -11.78646571	      0.00000000	     -3.70307444	      3.91218884	      3.52300100	      1.63202150	      0.02848415	     22.93271900	     -9.87394600	      0.00000000	     -0.09281925	     -0.94137341	     -0.12183236	     -0.17237462	     -1.25202663	     -0.12944688	     -0.15249274	     -2.28885530	     -0.12944688	     -0.10608312	     -2.28885530	     -0.10660331	     -0.08619195	     -1.91964865	     -0.09898879	     -0.05303692	     -1.45818741	     -0.09137427	     -0.66299860	    -10.64900425	     -0.67759502	      0.00000000	      0.00000000	     28.12683544	      8.97233392	    -24.93927590	     24.37339066	    -13.73417892	      0.07639401	    134.35893926	     86.99190847	     11.15997918	     11.70777636	      0.26440573	    -19.82661623	    154.92502113	      1.79732498	     12.86794998	     -9.14418448	     -2.27056069
      1.13333333	     -0.09124101	     -4.42219695	     90.98991142	      0.34031914	      1.05557172	      0.35715037	     -3.85401817	     -5.29888179	     14.96156540	      2.80756851	      0.04900131	     23.36436578	    -11.59433032	      0.00000000	     -3.77587574	      3.98667095	      3.30776270	      1.73175262	      0.03022478	     22.94006383	     -9.07786446	      0.00000000	     -0.11959703	     -0.96929788	     -0.20306921	     -0.22210364	     -1.28916618	     -0.21576103	     -0.19648596	     -2.35675087	     -0.21576103	     -0.13668745	     -2.35675087	     -0.17768556	     -0.11105780	     -1.97659224	     -0.16499373	     -0.06833774	     -1.50144242	     -0.15230191	     -0.85426962	    -10.96489151	     -1.12941002	      0.00000000	      0.00000000	     28.11086110	      9.22802426	    -25.25009040	     25.87630142	    -13.72249957	     -1.18506233	    137.85832830	     88.03763749	     16.83087366	     11.98618620	     -0.14758221	    -19.98530486	    155.32643668	      1.52505202	     12.62696149	     -9.45521248	     -2.55035497
      1.15000000	     -0.07128856	     -4.25979697	     91.09035273	      0.34038214	      1.05600018	      0.35717507	     -4.05350463	     -5.24810472	     14.75889959	      2.77680536	      0.04846440	     23.30534456	    -11.63724411	      0.00000000	     -3.92838301	      3.96136452	      3.39921162	      1.71837521	      0.02999131	     22.76537095	     -8.93626252	      0.00000000	     -0.14004365	     -0.97585118	     -0.23480373	     -0.26007507	     -1.29788207	     -0.24947896	     -0.23007772	     -2.37268456	     -0.24947896	     -0.16005589	     -2.37268456	     -0.20545326	     -0.13004454	     -1.98995573	     -0.19077803	     -0.08002094	     -1.51159348	     -0.17610279	     -1.00031781	    -11.03902375	     -1.30590788	      0.00000000	      0.00000000	     28.08136704	      9.57312014	    -25.35320959	     27.36956293	    -14.25909104	     -1.41900167	    140.81049446	     88.50078430	     17.49470923	     11.95756047	     -0.57395131	    -19.96020945	    155.37971546	      1.21305299	     12.57041874	     -9.73219436	     -2.84513912
      1.16666667	     -0.05247992	     -4.08639853	     91.66843448	      0.34019708	      1.05665762	      0.35702606	     -4.40891856	     -5.15647147	     14.08957015	      2.57872057	      0.04500716	     23.21682787	    -11.56524732	      0.00000000	     -4.07748655	      3.87876859	      4.31578379	      1.73693349	      0.03031521	     22.41005369	     -9.03455458	      0.00000000	     -0.16172142	     -0.98537940	     -0.35025143	     -0.30033284	     -1.31055460	     -0.37214214	     -0.26569212	     -2.39585147	     -0.37214214	     -0.18483141	     -2.39585147	     -0.30647000	     -0.15017451	     -2.00938567	     -0.28457928	     -0.09240762	     -1.52635269	     -0.26268857	     -1.15515991	    -11.14680882	     -1.94799336	      0.00000000	      0.00000000	     28.04105846	      9.74311510	    -25.52849635	     29.02922666	    -13.92319030	     -2.61338059	    143.15578388	     88.56111618	     20.33560668	     14.58396849	     -0.86311963	    -20.00569480	    156.69324388	      1.04023659	     13.27823045	    -10.81691225	     -3.39329101
      1.18333333	     -0.02379366	     -4.02211426	     91.60349821	      0.34052532	      1.05725543	      0.35681013	     -4.45734441	     -5.09264401	     14.09762540	      2.52672301	      0.04409964	     23.23424236	    -11.55264490	      0.00000000	     -4.11618090	      3.84808195	      4.43925126	      1.77812228	      0.03103409	     22.12417377	     -8.93897274	      0.00000000	     -0.15298134	     -0.99103351	     -0.35635864	     -0.28410165	     -1.31807457	     -0.37863106	     -0.25133304	     -2.40959889	     -0.37863106	     -0.17484237	     -2.40959889	     -0.31181381	     -0.14205847	     -2.02091554	     -0.28954140	     -0.08741354	     -1.53511091	     -0.26726898	     -1.09273042	    -11.21076932	     -1.98195987	      0.00000000	      0.00000000	     27.93773960	      9.92289523	    -25.51145164	     30.39737234	    -13.76218615	     -3.13963052	    144.21067006	     88.52940112	     20.20037408	     14.39497576	     -1.11987962	    -19.91064715	    156.79684367	      0.89370080	     13.36017734	    -10.86662831	     -3.45690839
      1.20000000	      0.13370535	     -3.67142605	     92.04044264	      0.33994838	      1.05804495	      0.35627617	     -5.00636468	     -4.89159296	     14.01432577	      2.26594681	      0.03954823	     23.12848809	    -11.74891304	      0.00000000	     -4.58154595	      3.67934293	      6.86548422	      1.57375711	      0.02746724	     21.00278066	    -11.47587999	      0.00000000	     -0.18861134	     -0.96770115	     -0.40381027	     -0.35027012	     -1.28704253	     -0.42904841	     -0.30986957	     -2.35286858	     -0.42904841	     -0.21556390	     -2.35286858	     -0.35333398	     -0.17514449	     -1.97333619	     -0.32809584	     -0.10777252	     -1.49896908	     -0.30285770	     -1.34723195	    -10.94682898	     -2.24587156	      0.00000000	      0.00000000	     27.97881322	     10.12073485	    -25.16401516	     32.19213970	    -13.74227470	     -3.71898437	    144.89004473	     88.54019113	     20.21890796	     16.37291214	     -0.98392063	    -19.66525304	    159.63450259	      0.68793219	     16.57082878	    -12.51192312	     -3.28895783
